<svg width="15" height="18" viewBox="0 0 15 18" fill="none" xmlns="http://www.w3.org/2000/svg">
<path fill-rule="evenodd" clip-rule="evenodd" d="M0.779819 8.93066C0.779819 7.94661 0.863016 7.32209 2.91809 5.80083C4.61947 4.54134 10.073 0.237389 10.073 0.237389V7.42206H14.2203V17.7626H2.07516C1.36274 17.7626 0.779617 17.1843 0.779617 16.4778L0.779819 8.93072V8.93066Z" fill="#3E9CDC"/>
<path fill-rule="evenodd" clip-rule="evenodd" d="M10.073 7.42197V11.585L2.4521 16.7335L12.0873 13.6246V7.42197H10.073Z" fill="black" fill-opacity="0.2"/>
<path fill-rule="evenodd" clip-rule="evenodd" d="M6.5904 7.20682C7.03609 6.6802 7.68696 6.49433 8.04435 6.79169C8.40174 7.08912 8.3303 7.75716 7.8846 8.28377C7.43925 8.81032 6.78811 8.99599 6.43072 8.69856C6.07333 8.4012 6.14497 7.7333 6.5904 7.20675V7.20682Z" fill="#231F20"/>
</svg>
