<svg width="56" height="56" viewBox="0 0 56 56" fill="none" xmlns="http://www.w3.org/2000/svg">
<path d="M24.7289 32.5357V30.6071H27.3003V24.8214H27.2601C26.9387 25.3237 26.6373 25.5446 26.1552 25.9665L24.6083 24.3594L27.5815 21.6071H29.8717V30.6071H32.4432V32.5357H24.7289ZM35.0146 27.3928C35.0146 23.7366 32.8048 19.0357 28.586 19.0357C24.3673 19.0357 22.1574 23.7366 22.1574 27.3928C22.1574 31.0491 24.3673 35.75 28.586 35.75C32.8048 35.75 35.0146 31.0491 35.0146 27.3928ZM45.3003 32.5357C42.4677 32.5357 40.1574 34.846 40.1574 37.6786H17.0146C17.0146 34.846 14.7043 32.5357 11.8717 32.5357V22.25C14.7043 22.25 17.0146 19.9397 17.0146 17.1071H40.1574C40.1574 19.9397 42.4677 22.25 45.3003 22.25V32.5357ZM47.8717 15.8214C47.8717 15.1183 47.2891 14.5357 46.586 14.5357H10.586C9.88288 14.5357 9.30029 15.1183 9.30029 15.8214V38.9643C9.30029 39.6674 9.88288 40.25 10.586 40.25H46.586C47.2891 40.25 47.8717 39.6674 47.8717 38.9643V15.8214Z" fill="white"/>
</svg>
